<svg width="64" height="65" viewBox="0 0 64 65" fill="none" xmlns="http://www.w3.org/2000/svg">
<path d="M32.848 64.808C26.464 64.808 20.7893 63.516 15.824 60.932C10.8587 58.3987 6.98267 54.7507 4.196 49.988C1.40933 45.276 0.016 39.7533 0.016 33.42C0.016 27.34 1.46 21.7667 4.348 16.7C7.236 11.5827 11.188 7.55466 16.204 4.616C21.22 1.62667 26.8187 0.131999 33 0.131999C38.6747 0.131999 43.792 1.32267 48.352 3.704C52.9627 6.08533 56.56 9.35333 59.144 13.508C61.7787 17.612 63.096 22.2227 63.096 27.34C63.096 31.6467 62.3867 35.4213 60.968 38.664C59.5493 41.856 57.5987 44.3133 55.116 46.036C52.684 47.7587 49.9227 48.62 46.832 48.62C44.7547 48.62 43.1587 48.164 42.044 47.252C40.98 46.34 40.2707 44.9467 39.916 43.072C38.4973 44.6933 36.5213 45.9853 33.988 46.948C31.5053 47.9107 28.9973 48.392 26.464 48.392C22.8667 48.392 20.0547 47.404 18.028 45.428C16.0013 43.4013 14.988 40.564 14.988 36.916C14.988 33.268 15.748 29.848 17.268 26.656C18.8387 23.4133 20.992 20.8293 23.728 18.904C26.5147 16.928 29.656 15.94 33.152 15.94C37.256 15.94 40.4733 16.8773 42.804 18.752C45.1347 20.576 46.3 23.16 46.3 26.504C46.3 27.3147 46.224 28.176 46.072 29.088L44.78 36.536C44.5267 38.1573 44.4 39.348 44.4 40.108C44.4 41.5267 44.6787 42.5653 45.236 43.224C45.844 43.832 46.7813 44.136 48.048 44.136C49.8213 44.136 51.468 43.4773 52.988 42.16C54.5587 40.792 55.8253 38.8413 56.788 36.308C57.7507 33.7747 58.232 30.836 58.232 27.492C58.232 23.1853 57.092 19.3093 54.812 15.864C52.532 12.368 49.4667 9.65733 45.616 7.732C41.7653 5.756 37.56 4.768 33 4.768C27.7813 4.768 23.0693 6.06 18.864 8.644C14.6587 11.1773 11.3653 14.648 8.984 19.056C6.60267 23.4133 5.412 28.2013 5.412 33.42C5.412 38.892 6.552 43.6547 8.832 47.708C11.1627 51.7107 14.4053 54.776 18.56 56.904C22.7147 59.0827 27.528 60.172 33 60.172C37.3067 60.172 41.056 59.5387 44.248 58.272C47.4907 57.0053 49.8467 55.3587 51.316 53.332C52.988 53.8387 53.824 54.7 53.824 55.916C53.824 57.436 52.76 58.88 50.632 60.248C48.5547 61.616 45.8693 62.7053 42.576 63.516C39.3333 64.3773 36.0907 64.808 32.848 64.808ZM27.452 44.136C30.7453 44.136 33.5573 43.0973 35.888 41.02C38.2187 38.892 39.7387 35.9533 40.448 32.204L41.056 29.012C41.208 28.252 41.284 27.5427 41.284 26.884C41.284 24.756 40.5493 23.1347 39.08 22.02C37.6613 20.8547 35.736 20.272 33.304 20.272C30.568 20.272 28.212 21.0573 26.236 22.628C24.26 24.1987 22.7653 26.276 21.752 28.86C20.7893 31.3933 20.308 34.1547 20.308 37.144C20.308 39.5253 20.8907 41.2987 22.056 42.464C23.2213 43.5787 25.02 44.136 27.452 44.136Z" fill="white"/>
</svg>
