<svg width="76" height="95" viewBox="0 0 76 95" fill="none" xmlns="http://www.w3.org/2000/svg">
<path d="M73 84V25C73 20.5817 69.4183 17 65 17C60.5817 17 57 20.5817 57 25V84C57 88.4183 60.5817 92 65 92C69.4183 92 73 88.4183 73 84Z" fill="white" stroke="white" stroke-width="6"/>
<path d="M46 84V11C46 6.58172 42.4183 3 38 3C33.5817 3 30 6.58172 30 11V84C30 88.4183 33.5817 92 38 92C42.4183 92 46 88.4183 46 84Z" fill="white" stroke="white" stroke-width="6"/>
<path d="M19 84V52C19 47.5817 15.4183 44 11 44C6.58172 44 3 47.5817 3 52V84C3 88.4183 6.58172 92 11 92C15.4183 92 19 88.4183 19 84Z" fill="white" stroke="white" stroke-width="6"/>
</svg>
