<svg width="378" height="513" viewBox="0 0 378 513" fill="none" xmlns="http://www.w3.org/2000/svg">
<path 
  d="M274.784 
  313.138C284.584 
  306.438 
  298.184 
  300.638 
  298.184 
  300.638C298.184 
  300.638 
  259.484 
  307.638 
  220.984 
  310.838C173.884 
  314.738 
  123.284 
  315.538 
  97.8843 
  312.138C37.7843 
  304.138 
  130.884 
  282.038 
  130.884 
  282.038C130.884 
  282.038 
  94.7844 
  279.638 
  50.2844 
  301.038C-2.21564 
  326.438 
  180.284 
  338.038 
  274.784 
  313.138ZM189.384 
  281.038C170.384 
  238.338 
  106.284 
  200.838 
  189.384 
  135.238C293.044 
  53.4383 
  239.884 
  0.238159 
  239.884 
  0.238159C261.384 
  84.7382 
  164.284 
  110.338 
  129.184 
  162.838C105.284 
  198.738 
  140.884 
  237.238 
  189.384 
  281.038ZM303.984 
  104.838C304.084 104.838 128.784 148.638 212.484 245.038C237.184 273.438 205.984 299.038 205.984 299.038C205.984 299.038 268.684 266.638 239.884 226.138C212.984 188.338 192.384 169.538 303.984 104.838ZM297.884 375.338C297.338 376.291 296.665 377.166 295.884 377.938C424.184 344.238 376.984 259.038 315.684 280.638C312.374 281.855 309.513 284.053 307.484 286.938C311.064 285.643 314.743 284.639 318.484 283.938C349.484 277.438 393.984 325.438 297.884 375.338ZM345.044 437.638C345.044 437.638 359.544 449.538 329.144 458.838C271.244 476.338 88.3443 481.638 37.5443 459.538C19.2444 451.638 53.5443 440.538 64.3443 438.238C75.5443 435.838 82.0443 436.238 82.0443 436.238C61.7443 421.938 -49.2556 464.338 25.6444 476.438C229.884 509.638 398.044 461.538 345.044 437.638ZM121.484 396.238C42.7843 418.238 169.384 463.638 269.584 420.738C259.812 416.942 250.378 412.325 241.384 406.938C196.684 415.438 175.984 416.038 135.384 411.438C101.884 407.638 121.484 396.238 121.484 396.238ZM301.284 493.438C222.584 508.238 125.484 506.538 67.9843 497.038C67.9843 496.938 79.7844 506.738 140.384 510.638C232.584 516.538 374.184 507.338 377.484 463.738C377.484 463.738 371.084 480.238 301.284 493.438ZM257.684 353.238C198.484 364.638 164.184 364.338 120.884 359.838C87.3843 356.338 109.284 340.138 109.284 340.138C22.4843 368.938 157.484 401.538 278.784 366.038C270.945 363.27 263.761 358.912 257.684 353.238Z" 
  fill="#06738B"/>
<path 
  d="M189.384 
  281.038C170.384 
  238.338 
  106.284 
  200.838 
  189.384 
  135.238C293.044 
  53.4383 
  239.884 
  0.238159 
  239.884 
  0.238159C261.384 
  84.7382 
  164.284 
  110.338 
  129.184 
  162.838C105.284 
  198.738 
  140.884 
  237.238 
  189.384 
  281.038ZM303.984 
  104.838C304.084 
  104.838 
  128.784 
  148.638 
  212.484 
  245.038C237.184 
  273.438 
  205.984 
  299.038 
  205.984 
  299.038C205.984 
  299.038 
  268.684 
  266.638 
  239.884 
  226.138C212.984 
  188.338 
  192.384 
  169.538 
  303.984 
  104.838Z" 
  fill="#ea8c10"/>
</svg>
